HIERARCHY
ROOT Hips
{
  OFFSET 5.49576 92.7869 35.8366
  CHANNELS 6 Xposition Yposition Zposition Zrotation Xrotation Yrotation
  JOINT RightUpLeg
  {
    OFFSET -8.9458 -8.66707 0.101652
    CHANNELS 3 Zrotation Xrotation Yrotation
    JOINT RightLeg
    {
      OFFSET 0 -44.4227 1.3727
      CHANNELS 3 Zrotation Xrotation Yrotation
      JOINT RightFoot
      {
        OFFSET 0.253549 -42.0924 -1.46059
        CHANNELS 3 Zrotation Xrotation Yrotation
        JOINT RightToes
        {
          OFFSET 0.04 -4.41509 8.4991
          CHANNELS 3 Zrotation Xrotation Yrotation
          End Site
          {
            OFFSET -0.08 -0.137448 9.77979
          }
        }
      }
    }
  }
  JOINT Spine
  {
    OFFSET 0 11.8905 0
    CHANNELS 3 Zrotation Xrotation Yrotation
    JOINT Spine1
    {
      OFFSET 0 25.6574 0.127663
      CHANNELS 3 Zrotation Xrotation Yrotation
      JOINT HEad
      {
        OFFSET 0 8.73416 0.011341
        CHANNELS 3 Zrotation Xrotation Yrotation
        End Site
        {
          OFFSET -0.29 12.7742 2.51395
        }
      }
      JOINT LeftShoulder1
      {
        OFFSET 8.99 -0.362252 -0.22
        CHANNELS 3 Zrotation Xrotation Yrotation
        JOINT LeftArm
        {
          OFFSET 10.2827 -0.00338 0.322123
          CHANNELS 3 Zrotation Xrotation Yrotation
          JOINT LeftForeArm
          {
            OFFSET 32.7669 0.099144 -1.42434
            CHANNELS 3 Zrotation Xrotation Yrotation
            JOINT LeftHand
            {
              OFFSET 27.5643 0.085362 1.02216
              CHANNELS 3 Zrotation Xrotation Yrotation
              End Site
              {
                OFFSET 16.7443 -0.6 1.50291
              }
            }
          }
        }
      }
      JOINT RightShoulder
      {
        OFFSET -8.99 -0.362252 -0.22
        CHANNELS 3 Zrotation Xrotation Yrotation
        JOINT RightArm
        {
          OFFSET -10.2827 -0.00338 0.322123
          CHANNELS 3 Zrotation Xrotation Yrotation
          JOINT RightForeArm
          {
            OFFSET -32.8971 0.099144 -1.42434
            CHANNELS 3 Zrotation Xrotation Yrotation
            JOINT RightHand
            {
              OFFSET -27.4921 0.085362 1.02216
              CHANNELS 3 Zrotation Xrotation Yrotation
              End Site
              {
                OFFSET -16.6312 -0.6 1.50291
              }
            }
          }
        }
      }
    }
  }
  JOINT LeftUpLeg
  {
    OFFSET 8.9458 -8.66707 0.101652
    CHANNELS 3 Zrotation Xrotation Yrotation
    JOINT LeftLeg
    {
      OFFSET 0 -44.4227 1.3727
      CHANNELS 3 Zrotation Xrotation Yrotation
      JOINT LeftFoot
      {
        OFFSET -0.253549 -42.0924 -1.46059
        CHANNELS 3 Zrotation Xrotation Yrotation
        JOINT LeftToes
        {
          OFFSET -0.04 -4.41509 8.4991
          CHANNELS 3 Zrotation Xrotation Yrotation
          End Site
          {
            OFFSET 0.08 -0.047448 9.77979
          }
        }
      }
    }
  }
}
MOTION
Frames:	9
Frame Time:	0.0166667
3.40107 84.5983 -14.4534 1.24003 -1.09057 106.226 -18.5269 -50.392 5.03322 9.59992 71.486 -10.45 19.0673 34.5333 -7.0003 -8.38835 -63.6722 12.1933 2.45916 7.24426 -6.82823 -5.00592 13.1437 -12.9296 15.7224 -5.256 -17.8442 1.59028e-015 -1.2921e-015 -7.95139e-016 -35.4738 14.2249 -81.2748 -9.25396 19.1116 -84.1342 6.54677 9.62745 -1.04006 32.1671 -8.43443 -26.9401 43.5697 -13.057 15.5786 -11.0674 32.4636 121.081 -20.8017 8.40049 4.24675 21.3001 7.28762 -14.249 -15.4394 31.5412 16.3249 2.06269 20.6282 -0.646975 83.7907 -58.0644 67.8062 
2.82511 84.0886 -12.8984 1.30618 -0.599887 107.594 -18.4596 -50.1596 8.60635 2.73445 72.6526 -4.8662 20.1409 35.6958 -7.61477 -3.83317 -64.9664 18.4118 2.11835 7.85127 -6.22407 -5.29123 14.4765 -11.6334 15.3682 -7.7545 -19.7651 -1.59028e-015 1.14301e-015 3.97569e-016 -47.5007 13.2768 -72.2757 -11.1867 27.248 -90.8193 6.54677 9.62745 -1.04006 31.5128 -8.37387 -27.2324 43.4527 -21.1671 15.5991 -11.1683 33.3573 122.735 -19.7096 8.85326 2.02092 21.8835 6.17999 -13.8339 -14.0393 32.159 14.2434 0.87757 21.2148 -0.363525 86.024 -59.0875 68.8654 
2.57612 83.8472 -11.2969 1.391 -0.368992 109.33 -19.2163 -48.8413 11.0775 -1.53574 72.4875 -2.90457 19.2012 36.48 -7.38235 -1.69423 -65.1966 21.2296 1.945 8.33054 -5.42422 -5.35439 15.5437 -9.93828 15.3017 -9.92573 -22.3793 3.18055e-015 -7.95139e-016 3.97569e-016 -58.2719 10.4871 -63.5091 -13.0322 35.1616 -97.115 6.54677 9.62745 -1.04006 30.6988 -8.26994 -27.5243 42.3148 -30.5053 14.8025 -11.072 34.5007 123.825 -18.2385 9.33204 -0.579586 22.7827 4.76643 -13.5529 -12.552 32.8219 11.7819 -0.648862 22.2819 0.0192907 87.9725 -60.0824 69.6953 
2.63318 83.8815 -9.62711 1.43549 -0.405782 111.575 -20.8326 -46.6653 12.4343 -1.83158 71.3093 -5.15174 16.5535 36.476 -6.33486 -2.4072 -63.7864 20.0736 1.97173 8.58924 -4.53007 -5.22871 16.1605 -8.0775 15.4361 -11.4965 -25.3889 -3.03456e-032 2.18663e-015 7.95139e-016 -62.8305 9.2263 -57.3739 -13.565 37.4628 -103.12 6.54677 9.62745 -1.04006 29.769 -8.10817 -27.7403 39.281 -40.1344 12.5826 -10.9444 35.5019 123.842 -16.3898 9.76585 -3.32873 23.9595 3.13869 -13.493 -10.8843 33.1404 8.76164 -2.36748 23.358 0.482739 88.6233 -60.9998 69.449 
2.96574 84.1665 -7.86402 1.39136 -0.663333 114.363 -23.0943 -43.8054 13.0117 1.46691 69.2392 -10.6088 12.881 35.4199 -4.77397 -4.78647 -60.3786 16.2431 2.1512 8.5647 -3.648 -4.98396 16.218 -6.28218 15.7171 -12.3266 -28.4868 -6.62086e-032 -2.38542e-015 -1.59028e-015 -66.0486 7.84972 -52.1406 -13.6774 39.0103 -107.881 6.54677 9.62745 -1.04006 28.7626 -7.85813 -27.7486 33.3018 -48.6504 8.08488 -11.0294 35.8503 122.354 -14.2666 10.0833 -5.88644 25.2991 1.33975 -13.6893 -9.01646 32.8722 5.21574 -4.17278 24.185 0.995603 87.2586 -61.7834 67.5213 
3.52833 84.6445 -5.99086 1.23323 -1.07634 117.598 -25.6583 -40.4107 13.2778 6.78886 66.2087 -17.4218 8.97382 33.2898 -3.12597 -7.03387 -54.9266 11.7858 2.39113 8.24994 -2.86669 -4.71989 15.7176 -4.7333 16.1267 -12.4332 -31.4006 2.64834e-031 -4.77083e-015 3.18055e-015 -67.9488 6.57398 -48.0105 -13.5593 39.795 -111.228 6.54677 9.62745 -1.04006 27.7048 -7.48661 -27.3997 23.875 -54.6049 0.801796 -11.4557 35.3608 119.14 -12.0739 10.2488 -7.88399 26.6707 -0.608693 -14.1413 -7.0255 31.9364 1.41193 -6.01416 24.7567 1.53361 83.6934 -62.3144 63.7656 
4.26023 85.2337 -4.00655 0.963642 -1.5817 121.056 -28.1439 -36.6655 13.624 12.1802 62.2114 -23.6585 5.5269 30.2362 -1.75397 -8.15223 -47.6809 7.93954 2.59319 7.70102 -2.23537 -4.53793 14.7753 -3.52381 16.6323 -11.9817 -33.9163 -1.59028e-015 4.77083e-015 -6.36111e-015 -68.7311 5.53637 -45.0678 -13.2998 39.9799 -113.394 6.54677 9.62745 -1.04006 26.5993 -6.97041 -26.5707 12.4194 -57.2424 -8.04086 -12.0766 34.419 114.269 -10.0779 10.2818 -9.05708 27.9659 -2.66152 -14.8213 -5.06494 30.403 -2.21902 -7.87923 25.2429 2.09241 78.2714 -62.4239 58.5074 
5.09142 85.8456 -1.92328 0.611008 -2.11642 124.41 -30.2305 -32.818 14.2249 16.1779 57.5157 -28.0386 3.05243 26.5077 -0.8572 -8.0861 -39.1472 4.93187 2.68145 7.0219 -1.75444 -4.50483 13.5888 -2.64724 17.1335 -11.2251 -35.882 -1.59028e-015 2.38542e-015 9.54166e-015 -68.7625 4.70236 -43.2828 -12.9382 39.8283 -114.795 6.54677 9.62745 -1.04006 25.4267 -6.30388 -25.1936 1.99744 -56.9855 -15.594 -12.5477 33.6206 108.1 -8.57171 10.2374 -9.3124 29.1159 -4.72005 -15.6778 -3.31376 28.4709 -5.20379 -9.7504 25.8661 2.68118 71.6956 -61.9638 52.4083 
5.95316 86.4023 0.242823 0.220065 -2.60443 127.297 -31.7504 -29.146 15.0274 18.2218 52.6008 -30.1888 1.81456 22.4443 -0.450303 -7.27159 -30.2331 2.4759 2.61464 6.3336 -1.38577 -4.63246 12.3816 -2.01796 17.4661 -10.4119 -37.1987 -1.59028e-015 1.59028e-015 -0 -68.478 3.87799 -42.5129 -12.5147 39.6144 -115.837 6.54677 9.62745 -1.04006 24.1484 -5.49952 -23.2569 -5.36436 -55.0231 -19.9281 -12.5655 33.2701 101.195 -7.8101 10.1684 -8.71842 30.0907 -6.64038 -16.6411 -1.92867 26.4432 -7.14778 -11.5597 26.7803 3.30172 64.7208 -60.8672 46.1823 
